<?xml version="1.0" encoding="UTF-8"?>
<svg width="26px" height="40px" viewBox="0 0 26 40" version="1.1" xmlns="http://www.w3.org/2000/svg" xmlns:xlink="http://www.w3.org/1999/xlink">
    <!-- Generator: Sketch 49.2 (51160) - http://www.bohemiancoding.com/sketch -->
    <title>record</title>
    <desc>Created with Sketch.</desc>
    <defs></defs>
    <g id="Page-1" stroke="none" stroke-width="1" fill="none" fill-rule="evenodd">
        <g id="record" fill="#4A90E2" fill-rule="nonzero">
            <path d="M12.9,29.2 C17.6,29.2 21.4,25.4 21.4,20.7 L21.4,8.5 C21.4,3.8 17.6,0 12.9,0 C8.2,0 4.4,3.8 4.4,8.5 L4.4,20.7 C4.4,25.4 8.2,29.2 12.9,29.2 Z M6.4,19.6 L10.4,19.6 C11,19.6 11.4,19.2 11.4,18.6 C11.4,18 11,17.6 10.4,17.6 L6.4,17.6 L6.4,15.6 L10.4,15.6 C11,15.6 11.4,15.2 11.4,14.6 C11.4,14 11,13.6 10.4,13.6 L6.4,13.6 L6.4,11.6 L10.4,11.6 C11,11.6 11.4,11.2 11.4,10.6 C11.4,10 11,9.6 10.4,9.6 L6.4,9.6 L6.4,8.5 C6.4,4.9 9.3,2 12.9,2 C16.5,2 19.4,4.9 19.4,8.5 L19.4,9.6 L15.4,9.6 C14.8,9.6 14.4,10 14.4,10.6 C14.4,11.1 14.9,11.6 15.4,11.6 L19.4,11.6 L19.4,13.6 L15.4,13.6 C14.8,13.6 14.4,14 14.4,14.6 C14.4,15.1 14.9,15.6 15.4,15.6 L19.4,15.6 L19.4,17.6 L15.4,17.6 C14.8,17.6 14.4,18 14.4,18.6 C14.4,19.1 14.9,19.6 15.4,19.6 L19.4,19.6 L19.4,20.7 C19.4,24.3 16.5,27.2 12.9,27.2 C9.3,27.2 6.4,24.3 6.4,20.7 L6.4,19.6 Z" id="Shape"></path>
            <path d="M25.4,20.6 C25.4,20.1 24.9,19.6 24.4,19.6 C23.9,19.6 23.4,20.1 23.4,20.6 C23.4,26.4 18.7,31.1 12.9,31.1 C7.1,31.1 2.4,26.4 2.4,20.6 C2.4,20.1 1.9,19.6 1.4,19.6 C0.9,19.6 0.4,20.1 0.4,20.6 C0.4,27.2 5.5,32.6 11.9,33.1 L11.9,38 L5.4,38 C4.9,38 4.4,38.4 4.4,39 C4.4,39.6 4.9,40 5.4,40 L20.4,40 C20.9,40 21.4,39.6 21.4,39 C21.4,38.4 20.9,38 20.4,38 L13.9,38 L13.9,33.1 C20.3,32.6 25.4,27.2 25.4,20.6 Z" id="Shape"></path>
        </g>
    </g>
</svg>