<?xml version="1.0" standalone="no"?>
<!DOCTYPE svg PUBLIC "-//W3C//DTD SVG 1.1//EN"
"http://www.w3.org/Graphics/SVG/1.1/DTD/svg11.dtd">
<svg xmlns="http://www.w3.org/2000/svg" version="1.1" width="2.475cm" height="2.5cm"> 


<g transform="scale(0.25, 0.25) translate(0, 0)">

<polygon
		style="fill:#cc9ba0;fill-opacity:1;stroke:none;stroke-width:4;stroke-miterlimit:4;stroke-dasharray:none;stroke-opacity:1"
		points="30,30 40,200 170,130"
		/>
<polygon
		style="fill:#e9afaf;fill-opacity:1;stroke:none;stroke-width:4;stroke-miterlimit:4;stroke-dasharray:none;stroke-opacity:1"
		points="45,60 50,200 150,130"
		/>
<polygon
		style="fill:#cc9ba0;fill-opacity:1;stroke:none;stroke-width:4;stroke-miterlimit:4;stroke-dasharray:none;stroke-opacity:1"
		points="30,30 40,200 170,130"
		transform="translate(350, 0) scale(-1, 1)"
		/>
<polygon
		style="fill:#e9afaf;fill-opacity:1;stroke:none;stroke-width:4;stroke-miterlimit:4;stroke-dasharray:none;stroke-opacity:1"
		points="45,60 50,200 150,130"
		transform="translate(350, 0) scale(-1, 1)"
		/>
<ellipse
		 style="fill:#ffc1c8;fill-opacity:1;stroke:none;stroke-width:4;stroke-miterlimit:4;stroke-dasharray:none;stroke-opacity:1"
		 ry="124"
		 rx="146"
		 cy="220"
		 cx="175" />
<circle
	     style="fill:#ff6654;fill-opacity:1;stroke:none;stroke-width:12;stroke-miterlimit:4;stroke-dasharray:none;stroke-opacity:1"
	     id="path7220"
	     cx="35.282932"
	     cy="35.282932"
	     r="35.282932"
		 transform="translate(65, 165)"/>
	  <ellipse
	     style="fill:#000000;fill-opacity:1;stroke:none;stroke-width:12;stroke-miterlimit:4;stroke-dasharray:none;stroke-opacity:1"
	     id="path7222"
	     cx="35.658283"
	     cy="37.159641"
	     rx="22.89637"
	     ry="22.14567"
		 transform="translate(65, 165)"/>
<circle
	     style="fill:#ff6654;fill-opacity:1;stroke:none;stroke-width:12;stroke-miterlimit:4;stroke-dasharray:none;stroke-opacity:1"
	     id="path7220"
	     cx="35.282932"
	     cy="35.282932"
	     r="35.282932"
		 transform="translate(205, 165)"/>
	  <ellipse
	     style="fill:#000000;fill-opacity:1;stroke:none;stroke-width:12;stroke-miterlimit:4;stroke-dasharray:none;stroke-opacity:1"
	     id="path7222"
	     cx="35.658283"
	     cy="37.159641"
	     rx="22.89637"
	     ry="22.14567"
		 transform="translate(205, 165)"/>
<ellipse
	     style="fill:#ffffff;fill-opacity:1;stroke:none;stroke-width:3;stroke-miterlimit:4;stroke-dasharray:none;stroke-opacity:1"
	     cx="71.316559"
	     cy="47.669491"
	     rx="71.316559"
	     ry="47.669491"
		 transform="translate(102, 230)"/>
<path
     style="fill:none;fill-rule:evenodd;stroke:#000000;stroke-width:4;stroke-linecap:butt;stroke-linejoin:miter;stroke-miterlimit:4;stroke-dasharray:none;stroke-opacity:1"
     d="m 57.127226,0.73613 c 0,60.0225 -54.0044696,36.0135 -55.1295796,12.8048 M 57.183486,0 c 0,60.02253 54.004464,36.01353 55.129574,12.8048"
	 transform="translate(116, 260)"
	 />
<path
     style="fill:#e9afaf;fill-opacity:1;stroke:none;stroke-width:0.1;stroke-miterlimit:4;stroke-dasharray:none;stroke-opacity:1"
     d="M 37.749457,10.978806 C 37.749467,5.5855058 32.80954,0.30020579 25.45282,0.00700579 c -4.36792,-0.1741 -4.30557,2.95430001 -6.57809,2.95430001 -2.35062,0 -2.24786,-3.36100001 -6.56845,-2.91010001 C 5.01759,0.81200579 0,5.6372058 0,10.978806 c 11.34021,20.1834 28.18045,19.8933 37.749457,0"
     transform="translate(155, 240)"
	 />

		<path
	     style="fill:#cc9ba0;fill-opacity:1;fill-rule:evenodd;stroke:none;stroke-width:1px;stroke-linecap:butt;stroke-linejoin:miter;stroke-opacity:1"
	     d="m 6.8695983,3.8070953 c -9.38376,46.9187897 -9.17344,70.1013497 0.75069,64.3725697 C 18.023978,62.174055 21.548988,2.0241753 20.241448,2.0241753 19.147388,0.89052534 6.7746983,2.5900053 6.8695983,3.8070953 Z"
	     transform="translate(142, 94)"/>
	  <path
	     style="fill:#cc9ba0;fill-opacity:1;fill-rule:evenodd;stroke:none;stroke-width:1px;stroke-linecap:butt;stroke-linejoin:miter;stroke-opacity:1"
	     d="m 59.446868,2.8482053 c 9.383756,46.9187997 9.173436,70.1013597 -0.75069,64.3725797 -10.40369,-6.00561 -13.9287,-66.1554897 -12.62116,-66.1554897 1.09406,-1.13364996 13.46675,0.56583 13.37185,1.78291 z"
	     transform="translate(142, 95)"/>
	  <path
	     style="fill:#cc9ba0;fill-opacity:1;fill-rule:evenodd;stroke:none;stroke-width:1px;stroke-linecap:butt;stroke-linejoin:miter;stroke-opacity:1"
	     d="m 27.465118,1.1363653 c -9.38376,46.9187997 -0.98013,82.0676997 8.944,76.3389197 10.40369,-6.00561 5.60269,-76.79476966 4.29515,-76.79476966 -1.09406,-1.13365 -13.33405,-0.76123 -13.23915,0.45584996 z"
	     transform="translate(142, 95)"/>
<path
	     style="fill:#cc9ba0;fill-rule:evenodd;stroke:none;stroke-width:1px;stroke-linecap:butt;stroke-linejoin:miter;stroke-opacity:1"
	     d="M 0,17.445334 C 37.68862,0.98973446 47.11077,-6.4418655 42.33334,6.8288345 37.55591,20.099434 6.76803,28.592634 6.76803,28.592634 4.1657,24.942434 0.85644,21.270134 0,17.445334 Z"
		 transform="translate(43, 255)"	 />
	  <path
	     style="fill:#cc9ba0;fill-rule:evenodd;stroke:none;stroke-width:1px;stroke-linecap:butt;stroke-linejoin:miter;stroke-opacity:1"
	     d="m 11.80172,33.883434 c 28.17178,-14.1874 35.21472,-20.5946 31.64365,-9.1532 -3.57107,11.4415 -24.05102,17.8256 -24.05102,17.8256 -1.94522,-3.147 -6.95246,-5.3749 -7.59263,-8.6724 z"
		 transform="translate(42, 255)"/>
<path
	     style="fill:#cc9ba0;fill-rule:evenodd;stroke:none;stroke-width:1px;stroke-linecap:butt;stroke-linejoin:miter;stroke-opacity:1"
	     d="M 0,17.445334 C 37.68862,0.98973446 47.11077,-6.4418655 42.33334,6.8288345 37.55591,20.099434 6.76803,28.592634 6.76803,28.592634 4.1657,24.942434 0.85644,21.270134 0,17.445334 Z"
		 transform="translate(308, 255) scale(-1, 1)"	 />
	  <path
	     style="fill:#cc9ba0;fill-rule:evenodd;stroke:none;stroke-width:1px;stroke-linecap:butt;stroke-linejoin:miter;stroke-opacity:1"
	     d="m 11.80172,33.883434 c 28.17178,-14.1874 35.21472,-20.5946 31.64365,-9.1532 -3.57107,11.4415 -24.05102,17.8256 -24.05102,17.8256 -1.94522,-3.147 -6.95246,-5.3749 -7.59263,-8.6724 z"
		 transform="translate(308, 255) scale(-1, 1)"/>

		 <path
	    style="fill:none;fill-rule:evenodd;stroke:#000000;stroke-width:3;stroke-linecap:butt;stroke-linejoin:miter;stroke-miterlimit:4;stroke-dasharray:none;stroke-opacity:1"
	    d="M 0.76440037,15.283171 84.104009,14.752341 4.4801804,26.961331 M 83.573179,14.619631 0.23358037,1.4817013"
		transform="translate(0, 235)"
	    />

		 <path
	    style="fill:none;fill-rule:evenodd;stroke:#000000;stroke-width:3;stroke-linecap:butt;stroke-linejoin:miter;stroke-miterlimit:4;stroke-dasharray:none;stroke-opacity:1"
	    d="M 0.76440037,15.283171 84.104009,14.752341 4.4801804,26.961331 M 83.573179,14.619631 0.23358037,1.4817013"
		transform="translate(353, 235) scale(-1, 1)"
	    />

</g>

</svg>
